<?xml version="1.0" encoding="UTF-8" standalone="no"?>

<svg
   width="245.00156"
   height="245.00153"
   viewBox="0 0 64.823327 64.82332"
   version="1.1"
   id="svg1"
   inkscape:version="1.4 (86a8ad7, 2024-10-11)"
   sodipodi:docname="tilemap.svg"
   xml:space="preserve"
   xmlns:inkscape="http://www.inkscape.org/namespaces/inkscape"
   xmlns:sodipodi="http://sodipodi.sourceforge.net/DTD/sodipodi-0.dtd"
   xmlns="http://www.w3.org/2000/svg"
   xmlns:svg="http://www.w3.org/2000/svg"><sodipodi:namedview
     id="namedview1"
     pagecolor="#808080"
     bordercolor="#000000"
     borderopacity="0.25"
     inkscape:showpageshadow="2"
     inkscape:pageopacity="0.0"
     inkscape:pagecheckerboard="true"
     inkscape:deskcolor="#d1d1d1"
     inkscape:document-units="px"
     showgrid="true"
     inkscape:zoom="1.4378367"
     inkscape:cx="153.35538"
     inkscape:cy="395.38564"
     inkscape:window-width="1920"
     inkscape:window-height="1009"
     inkscape:window-x="-8"
     inkscape:window-y="-8"
     inkscape:window-maximized="1"
     inkscape:current-layer="layer1"
     showguides="true"><inkscape:grid
       id="grid1"
       units="px"
       originx="-134.25366"
       originy="-176.32619"
       spacingx="23.8125"
       spacingy="23.8125"
       empcolor="#0099e5"
       empopacity="0.30196078"
       color="#0099e5"
       opacity="0.14901961"
       empspacing="5"
       enabled="true"
       visible="true" /><inkscape:page
       x="0"
       y="0"
       width="64.823326"
       height="64.823318"
       id="page2"
       margin="0"
       bleed="0" /></sodipodi:namedview><defs
     id="defs1" /><g
     inkscape:label="Layer 1"
     inkscape:groupmode="layer"
     id="layer1"
     transform="translate(-134.25366,-176.32619)"><path
       style="fill:#3b3b3b;fill-opacity:1;stroke:#ffffff;stroke-width:6.35;stroke-linejoin:round;stroke-dasharray:none;stroke-opacity:1;paint-order:normal"
       d="m 166.66668,179.50118 a 23.442885,4.7921744 0 0 0 -23.443,4.79214 23.442885,4.7921744 0 0 0 0,0.008 c -0.0109,-0.002 -0.0109,-0.008 -0.0146,-0.008 0.29093,9.79394 1.7611,19.5877 3.72859,29.38164 a 29.236699,14.001755 0 0 0 -9.509,10.29781 29.236699,14.001755 0 0 0 29.23692,14.00173 29.236699,14.001755 0 0 0 29.2364,-14.00173 29.236699,14.001755 0 0 0 -9.76132,-10.40365 c 1.83693,-9.84452 3.53331,-19.58653 3.99321,-29.28962 -0.0109,0.003 -0.0183,0.008 -0.0255,0.0126 a 23.442885,4.7921744 0 0 0 -23.44234,-4.7891 z"
       id="use258"
       inkscape:export-filename="icon.png"
       inkscape:export-xdpi="96"
       inkscape:export-ydpi="96" /></g></svg>
