<?xml version="1.0" encoding="UTF-8" standalone="no"?>
<!-- Created with Inkscape (http://www.inkscape.org/) -->

<svg
   width="256"
   height="255.99998"
   viewBox="0 0 67.733331 67.733328"
   version="1.1"
   id="svg1"
   inkscape:version="1.4 (e7c3feb1, 2024-10-09)"
   sodipodi:docname="asset-pool-02.svg"
   xml:space="preserve"
   xmlns:inkscape="http://www.inkscape.org/namespaces/inkscape"
   xmlns:sodipodi="http://sodipodi.sourceforge.net/DTD/sodipodi-0.dtd"
   xmlns="http://www.w3.org/2000/svg"
   xmlns:svg="http://www.w3.org/2000/svg"><sodipodi:namedview
     id="namedview1"
     pagecolor="#e8e8e8"
     bordercolor="#000000"
     borderopacity="0.25"
     inkscape:showpageshadow="2"
     inkscape:pageopacity="0.0"
     inkscape:pagecheckerboard="true"
     inkscape:deskcolor="#d1d1d1"
     inkscape:document-units="px"
     inkscape:zoom="0.76435656"
     inkscape:cx="1917.953"
     inkscape:cy="919.72782"
     inkscape:window-width="1664"
     inkscape:window-height="1041"
     inkscape:window-x="46"
     inkscape:window-y="43"
     inkscape:window-maximized="0"
     inkscape:current-layer="layer1"
     showgrid="true"><inkscape:grid
       id="grid1"
       units="px"
       originx="-537.79944"
       originy="-180.29306"
       spacingx="23.812498"
       spacingy="23.812498"
       empcolor="#0099e5"
       empopacity="0.30196078"
       color="#0099e5"
       opacity="0.14901961"
       empspacing="5"
       enabled="true"
       visible="true" /><inkscape:page
       x="0"
       y="6.5010239e-16"
       width="67.73333"
       height="67.73333"
       id="page2"
       margin="0"
       bleed="0" /></sodipodi:namedview><defs
     id="defs1"><linearGradient
       id="swatch64"
       inkscape:swatch="solid"><stop
         style="stop-color:#a5a5a5;stop-opacity:1;"
         offset="0"
         id="stop66" /></linearGradient></defs><g
     inkscape:label="Layer 1"
     inkscape:groupmode="layer"
     id="layer1"
     style="display:inline"
     transform="translate(-537.79944,-180.29306)"><path
       style="fill:#ffffff;fill-opacity:1;stroke:#606060;stroke-width:6.89811;stroke-linejoin:round;stroke-dasharray:none;stroke-opacity:1;paint-order:fill markers stroke"
       d="m 564.43492,185.53345 c -13.20693,2.38732 -23.58197,6.25929 -23.17331,8.64828 9.6e-4,0.002 0.002,0.005 0.002,0.005 -0.002,-0.002 -0.009,-8.8e-4 -0.0152,-0.002 1.80899,8.78679 5.65458,22.22646 9.1739,30.70411 -5.75174,3.50023 -8.6454,7.78592 -8.06174,11.32694 1.19423,6.98009 15.51463,10.22494 31.98557,7.24754 16.47076,-2.97736 28.85482,-11.04941 27.66062,-18.02947 -0.6376,-3.58295 -4.88911,-6.62091 -11.61142,-7.8692 0.3536,-9.22478 -0.25366,-23.20166 -1.28311,-32.04489 -0.007,0.005 -0.0152,0.009 -0.0257,0.0118 -0.41867,-2.38592 -11.45258,-2.38599 -24.6527,1.2e-4 z"
       id="path10"
       inkscape:export-filename="icon-04.png"
       inkscape:export-xdpi="96"
       inkscape:export-ydpi="96"
       sodipodi:nodetypes="ccccccscccccc" /><path
       d="m 561.69056,233.09115 q -1.48494,0 -2.29493,-0.78626 -0.76494,-0.83251 -0.76494,-2.35892 v -26.31793 q 0,-1.52637 0.76494,-2.31267 0.80999,-0.8325 2.29493,-0.8325 h 10.79937 q 3.32983,0 5.6697,1.01756 2.33988,1.01754 3.55479,2.9139 1.25992,1.89635 1.25992,4.53281 0,2.96019 -1.66494,4.99531 -1.66488,2.03513 -4.54469,2.72892 v -0.69379 q 3.32978,0.50882 5.17466,2.59016 1.84497,2.08136 1.84497,5.41163 0,4.34775 -2.87987,6.75293 -2.83484,2.35885 -7.91959,2.35885 z m 2.47481,-4.48651 h 8.09957 q 3.05982,0 4.49977,-1.20258 1.4399,-1.24882 1.4399,-3.70025 0,-2.49763 -1.4399,-3.70021 -1.43995,-1.20258 -4.49977,-1.20258 h -8.09957 z m 0,-14.29216 h 7.33459 q 2.96986,0 4.40978,-1.15633 1.48491,-1.20257 1.48491,-3.51524 0,-2.31263 -1.48491,-3.46894 -1.43992,-1.20256 -4.40978,-1.20256 h -7.33459 z"
       id="text10"
       style="font-weight:bold;font-size:47.3615px;line-height:0;font-family:Nunito;-inkscape-font-specification:'Nunito, Bold';letter-spacing:-2.64583px;fill:#606060;fill-opacity:1;stroke:#606060;stroke-width:1.88288;stroke-linecap:round;stroke-linejoin:round;stroke-dasharray:none;stroke-dashoffset:48.5383;stroke-opacity:1;paint-order:stroke fill markers"
       aria-label="B"
       inkscape:export-filename="icon-03.svg"
       inkscape:export-xdpi="96"
       inkscape:export-ydpi="96" /></g></svg>
